<svg xmlns="http://www.w3.org/2000/svg" version="1.1" xmlns:xlink="http://www.w3.org/1999/xlink" xmlns:svgjs="http://svgjs.dev/svgjs" width="1500" height="1500" viewBox="0 0 1500 1500"><rect width="1500" height="1500" fill="#000000"></rect><g transform="matrix(0.6666666666666666,0,0,0.6666666666666666,249.39393939393938,563.6946628826094)"><svg viewBox="0 0 396 147" data-background-color="#7902f5" preserveAspectRatio="xMidYMid meet" height="556" width="1500" xmlns="http://www.w3.org/2000/svg" xmlns:xlink="http://www.w3.org/1999/xlink"><g id="tight-bounds" transform="matrix(1,0,0,1,0.2400000000000091,0.38547991795796577)"><svg viewBox="0 0 395.52 146.22904016408407" height="146.22904016408407" width="395.52"><g><svg viewBox="0 0 664.4431151001979 245.65351679999995" height="146.22904016408407" width="395.52"><g transform="matrix(1,0,0,1,0,48.373506004893486)"><svg viewBox="0 0 397.4975999999999 148.90650479021298" height="148.90650479021298" width="397.4975999999999"><g id="textblocktransform"><svg viewBox="0 0 397.4975999999999 148.90650479021298" height="148.90650479021298" width="397.4975999999999" id="textblock"><g><rect width="397.4975999999999" height="8.133543350675644" x="0" y="99.77268636380198" fill="#ffffff" opacity="1" stroke-width="0" stroke="transparent" fill-opacity="1" class="rect-yte-0" data-fill-palette-color="primary" rx="1%" id="yte-0" data-palette-color="#e1e1e3"></rect></g><g transform="matrix(1,0,0,1,0.9887999999999693,0)"><svg viewBox="0 0 395.52 90.19128712871287" height="90.19128712871287" width="395.52"><g transform="matrix(1,0,0,1,0,0)"><svg width="395.52" viewBox="3.49 -35.5 157.79999999999998 35.99" height="90.19128712871287" data-palette-color="#e1e1e3"><path d="M23.19-8.11L23.19-8.11Q23.19-6.32 22.52-4.76 21.85-3.2 20.68-2.03 19.51-0.85 17.94-0.18 16.38 0.49 14.6 0.49L14.6 0.49 12.11 0.49Q10.33 0.49 8.75-0.18 7.18-0.85 6.01-2.03 4.83-3.2 4.16-4.76 3.49-6.32 3.49-8.11L3.49-8.11 3.49-26.9Q3.49-28.69 4.16-30.25 4.83-31.81 6.01-32.98 7.18-34.16 8.75-34.83 10.33-35.5 12.11-35.5L12.11-35.5 14.6-35.5Q16.38-35.5 17.94-34.83 19.51-34.16 20.68-32.98 21.85-31.81 22.52-30.25 23.19-28.69 23.19-26.9L23.19-26.9 23.19-8.11ZM20.04-8.11L20.04-26.9Q20.04-28.08 19.6-29.09 19.17-30.1 18.41-30.86 17.65-31.62 16.64-32.06 15.63-32.5 14.45-32.5L14.45-32.5 12.26-32.5Q11.08-32.5 10.07-32.06 9.06-31.62 8.29-30.86 7.52-30.1 7.08-29.09 6.64-28.08 6.64-26.9L6.64-26.9 6.64-8.11Q6.64-6.93 7.08-5.92 7.52-4.91 8.29-4.14 9.06-3.37 10.07-2.93 11.08-2.49 12.26-2.49L12.26-2.49 14.45-2.49Q15.63-2.49 16.64-2.93 17.65-3.37 18.41-4.14 19.17-4.91 19.6-5.92 20.04-6.93 20.04-8.11L20.04-8.11ZM47.56-32.01L39.21-32.01 39.21 0 36.06 0 36.06-32.01 27.71-32.01 27.71-35.01 47.56-35.01 47.56-32.01ZM72.65 0L69.01 0 59.52-14.94 55.2-14.94 55.2 0 52.05 0 52.05-35.01 63.15-35.01Q64.94-35.01 66.5-34.34 68.06-33.67 69.23-32.5 70.41-31.32 71.08-29.75 71.75-28.17 71.75-26.39L71.75-26.39 71.75-23.56Q71.75-21.78 71.08-20.2 70.41-18.63 69.23-17.46 68.06-16.28 66.5-15.61 64.94-14.94 63.15-14.94L63.15-14.94 72.65 0ZM68.6-23.56L68.6-26.39Q68.6-27.56 68.16-28.58 67.72-29.59 66.96-30.36 66.21-31.13 65.19-31.57 64.18-32.01 63.01-32.01L63.01-32.01 55.2-32.01 55.2-17.94 63.01-17.94Q64.18-17.94 65.19-18.38 66.21-18.82 66.96-19.59 67.72-20.36 68.16-21.37 68.6-22.39 68.6-23.56L68.6-23.56ZM94.69 0L78.14 0 78.14-35.01 81.29-35.01 81.29-3 94.69-3 94.69 0ZM115.4 0L114.39 0 112.73-2.49Q111.71-1.15 110.17-0.33 108.63 0.49 106.8 0.49L106.8 0.49 106.04 0.49Q104.53 0.49 103.19-0.09 101.85-0.66 100.84-1.66 99.84-2.66 99.27-4 98.7-5.35 98.7-6.86L98.7-6.86 98.7-7.1Q98.7-8.62 99.27-9.96 99.84-11.3 100.84-12.3 101.85-13.31 103.19-13.88 104.53-14.45 106.04-14.45L106.04-14.45 112.39-14.45 112.39-18.31Q112.39-19.21 112.05-20.01 111.71-20.8 111.12-21.39 110.54-21.97 109.74-22.31 108.95-22.66 108.05-22.66L108.05-22.66 106.29-22.66Q105.39-22.66 104.59-22.31 103.8-21.97 103.21-21.39 102.63-20.8 102.28-20.01 101.94-19.21 101.94-18.31L101.94-18.31 101.94-17.41 98.94-17.9 98.94-18.14Q98.94-19.65 99.51-21 100.09-22.34 101.09-23.34 102.09-24.34 103.43-24.91 104.78-25.49 106.29-25.49L106.29-25.49 108.05-25.49Q109.56-25.49 110.9-24.91 112.25-24.34 113.25-23.34 114.25-22.34 114.82-21 115.4-19.65 115.4-18.14L115.4-18.14 115.4 0ZM112.39-6.69L112.39-12.11 106.04-12.11Q105.14-12.11 104.35-11.77 103.55-11.43 102.97-10.83 102.38-10.23 102.04-9.44 101.7-8.64 101.7-7.74L101.7-7.74 101.7-6.69Q101.7-5.79 102.04-4.99 102.38-4.2 102.97-3.61 103.55-3.03 104.35-2.69 105.14-2.34 106.04-2.34L106.04-2.34 108.05-2.34Q108.95-2.34 109.74-2.69 110.54-3.03 111.12-3.61 111.71-4.2 112.05-4.99 112.39-5.79 112.39-6.69L112.39-6.69ZM138.1-6.86L138.1-6.86Q138.1-5.35 137.52-4 136.95-2.66 135.95-1.66 134.95-0.66 133.61-0.09 132.26 0.49 130.75 0.49L130.75 0.49 128.75 0.49Q127.23 0.49 125.89-0.09 124.55-0.66 123.55-1.66 122.55-2.66 121.97-4 121.4-5.35 121.4-6.86L121.4-6.86 121.4-35.01 124.4-35.01 124.4-22.9Q125.43-24.12 126.87-24.8 128.31-25.49 129.99-25.49L129.99-25.49 130.75-25.49Q132.26-25.49 133.61-24.91 134.95-24.34 135.95-23.34 136.95-22.34 137.52-21 138.1-19.65 138.1-18.14L138.1-18.14 138.1-6.86ZM135.09-6.69L135.09-18.31Q135.09-19.21 134.75-20.01 134.41-20.8 133.83-21.39 133.24-21.97 132.45-22.31 131.65-22.66 130.75-22.66L130.75-22.66 128.75-22.66Q127.84-22.66 127.05-22.31 126.26-21.97 125.67-21.39 125.09-20.8 124.74-20.01 124.4-19.21 124.4-18.31L124.4-18.31 124.4-6.69Q124.4-5.79 124.74-4.99 125.09-4.2 125.67-3.61 126.26-3.03 127.05-2.69 127.84-2.34 128.75-2.34L128.75-2.34 130.75-2.34Q131.65-2.34 132.45-2.69 133.24-3.03 133.83-3.61 134.41-4.2 134.75-4.99 135.09-5.79 135.09-6.69L135.09-6.69ZM161.29-6.35L161.29-6.35Q161.29-4.83 160.68-3.58 160.07-2.32 159.02-1.42 157.97-0.51 156.59-0.01 155.21 0.49 153.7 0.49L153.7 0.49 151.69 0.49Q150.18 0.49 148.8-0.09 147.42-0.66 146.38-1.66 145.35-2.66 144.72-4 144.1-5.35 144.1-6.86L144.1-6.86 144.1-7.86 147.1-8.35 147.1-6.69Q147.1-5.79 147.48-4.99 147.86-4.2 148.5-3.61 149.13-3.03 149.96-2.69 150.79-2.34 151.69-2.34L151.69-2.34 153.7-2.34Q154.6-2.34 155.43-2.61 156.26-2.88 156.91-3.38 157.55-3.88 157.93-4.59 158.31-5.3 158.31-6.2L158.31-6.2Q158.31-7.54 157.72-8.4 157.14-9.25 156.17-9.83 155.21-10.4 153.98-10.78 152.74-11.16 151.45-11.54 150.16-11.91 148.92-12.4 147.69-12.89 146.73-13.68 145.76-14.48 145.18-15.67 144.59-16.87 144.59-18.65L144.59-18.65Q144.59-20.17 145.18-21.42 145.76-22.68 146.76-23.58 147.76-24.49 149.09-24.99 150.42-25.49 151.94-25.49L151.94-25.49 153.7-25.49Q155.21-25.49 156.55-24.91 157.9-24.34 158.9-23.34 159.9-22.34 160.47-21 161.04-19.65 161.04-18.14L161.04-18.14 161.04-18.04 158.04-17.55 158.04-18.31Q158.04-19.21 157.7-20.01 157.36-20.8 156.77-21.39 156.19-21.97 155.39-22.31 154.6-22.66 153.7-22.66L153.7-22.66 151.94-22.66Q151.03-22.66 150.24-22.39 149.45-22.12 148.86-21.62 148.28-21.12 147.93-20.41 147.59-19.7 147.59-18.8L147.59-18.8Q147.59-17.5 148.18-16.69 148.76-15.87 149.73-15.31 150.69-14.75 151.93-14.37 153.16-13.99 154.44-13.59 155.72-13.18 156.96-12.67 158.19-12.16 159.15-11.35 160.12-10.55 160.7-9.34 161.29-8.13 161.29-6.35Z" opacity="1" transform="matrix(1,0,0,1,0,0)" fill="#ffffff" class="wordmark-text-0" data-fill-palette-color="primary" id="text-0"></path></svg></g></svg></g><g transform="matrix(1,0,0,1,165.28780799999993,117.48762894956674)"><svg viewBox="0 0 232.209792 31.418875840646226" height="31.418875840646226" width="232.209792"><g transform="matrix(1,0,0,1,0,0)"><svg width="232.209792" viewBox="3.49 -35.5 265.94 35.99" height="31.418875840646226" data-palette-color="#e1e1e3"><path d="M23.19-8.11L23.19-8.11Q23.19-6.32 22.52-4.76 21.85-3.2 20.68-2.03 19.51-0.85 17.94-0.18 16.38 0.49 14.6 0.49L14.6 0.49 12.11 0.49Q10.33 0.49 8.75-0.18 7.18-0.85 6.01-2.03 4.83-3.2 4.16-4.76 3.49-6.32 3.49-8.11L3.49-8.11 3.49-26.9Q3.49-28.69 4.16-30.25 4.83-31.81 6.01-32.98 7.18-34.16 8.75-34.83 10.33-35.5 12.11-35.5L12.11-35.5 14.6-35.5Q16.38-35.5 17.94-34.83 19.51-34.16 20.68-32.98 21.85-31.81 22.52-30.25 23.19-28.69 23.19-26.9L23.19-26.9 23.19-8.11ZM20.04-8.11L20.04-26.9Q20.04-28.08 19.6-29.09 19.17-30.1 18.41-30.86 17.65-31.62 16.64-32.06 15.63-32.5 14.45-32.5L14.45-32.5 12.26-32.5Q11.08-32.5 10.07-32.06 9.06-31.62 8.29-30.86 7.52-30.1 7.08-29.09 6.64-28.08 6.64-26.9L6.64-26.9 6.64-8.11Q6.64-6.93 7.08-5.92 7.52-4.91 8.29-4.14 9.06-3.37 10.07-2.93 11.08-2.49 12.26-2.49L12.26-2.49 14.45-2.49Q15.63-2.49 16.64-2.93 17.65-3.37 18.41-4.14 19.17-4.91 19.6-5.92 20.04-6.93 20.04-8.11L20.04-8.11ZM41.06-32.15L38.3-32.15Q37.55-32.15 36.9-31.87 36.25-31.59 35.76-31.1 35.28-30.62 35-29.96 34.71-29.3 34.71-28.54L34.71-28.54 34.71-25 40.55-25 40.55-22.14 34.71-22.14 34.71 0 31.71 0 31.71-22.14 27.19-22.14 27.19-25 31.71-25 31.71-28.39Q31.71-29.76 32.22-30.97 32.74-32.18 33.64-33.08 34.54-33.98 35.74-34.5 36.94-35.01 38.3-35.01L38.3-35.01 41.06-35.01 41.06-32.15ZM55.41-32.15L52.66-32.15Q51.9-32.15 51.25-31.87 50.61-31.59 50.12-31.1 49.63-30.62 49.35-29.96 49.07-29.3 49.07-28.54L49.07-28.54 49.07-25 54.9-25 54.9-22.14 49.07-22.14 49.07 0 46.06 0 46.06-22.14 41.55-22.14 41.55-25 46.06-25 46.06-28.39Q46.06-29.76 46.58-30.97 47.09-32.18 47.99-33.08 48.9-33.98 50.09-34.5 51.29-35.01 52.66-35.01L52.66-35.01 55.41-35.01 55.41-32.15ZM81.75 0L79.02 0Q77.65 0 76.44-0.51 75.23-1.03 74.34-1.93 73.45-2.83 72.93-4.03 72.4-5.22 72.4-6.59L72.4-6.59 72.4-22.14 67.91-22.14 67.91-25 72.4-25 72.4-31.01 75.41-31.49 75.41-25 81.75-25 81.75-22.14 75.41-22.14 75.41-6.45Q75.41-5.69 75.69-5.04 75.97-4.39 76.45-3.91 76.94-3.42 77.6-3.14 78.26-2.86 79.02-2.86L79.02-2.86 81.75-2.86 81.75 0ZM103.97 0L100.96 0 100.96-18.31Q100.96-19.21 100.62-20.01 100.28-20.8 99.69-21.39 99.11-21.97 98.32-22.31 97.52-22.66 96.62-22.66L96.62-22.66 94.62-22.66Q93.71-22.66 92.92-22.31 92.13-21.97 91.54-21.39 90.95-20.8 90.61-20.01 90.27-19.21 90.27-18.31L90.27-18.31 90.27 0 87.27 0 87.27-35.01 90.27-35.01 90.27-22.9Q91.3-24.12 92.74-24.8 94.18-25.49 95.86-25.49L95.86-25.49 96.62-25.49Q98.13-25.49 99.47-24.91 100.82-24.34 101.82-23.34 102.82-22.34 103.39-21 103.97-19.65 103.97-18.14L103.97-18.14 103.97 0ZM126.67-6.86L126.67-6.86Q126.67-5.35 126.1-4 125.52-2.66 124.52-1.66 123.52-0.66 122.18-0.09 120.83 0.49 119.32 0.49L119.32 0.49 117.32 0.49Q115.81 0.49 114.46-0.09 113.12-0.66 112.12-1.66 111.12-2.66 110.54-4 109.97-5.35 109.97-6.86L109.97-6.86 109.97-18.14Q109.97-19.65 110.54-21 111.12-22.34 112.12-23.34 113.12-24.34 114.46-24.91 115.81-25.49 117.32-25.49L117.32-25.49 119.32-25.49Q120.83-25.49 122.18-24.91 123.52-24.34 124.52-23.34 125.52-22.34 126.1-21 126.67-19.65 126.67-18.14L126.67-18.14 126.67-12.26 112.97-12.26 112.97-6.69Q112.97-5.79 113.32-4.99 113.66-4.2 114.24-3.61 114.83-3.03 115.62-2.69 116.42-2.34 117.32-2.34L117.32-2.34 119.32-2.34Q120.22-2.34 121.02-2.69 121.81-3.03 122.4-3.61 122.98-4.2 123.32-4.99 123.67-5.79 123.67-6.69L123.67-6.69 123.67-8.35 126.67-7.86 126.67-6.86ZM123.67-14.6L123.67-18.31Q123.67-19.21 123.32-20.01 122.98-20.8 122.4-21.39 121.81-21.97 121.02-22.31 120.22-22.66 119.32-22.66L119.32-22.66 117.32-22.66Q116.42-22.66 115.62-22.31 114.83-21.97 114.24-21.39 113.66-20.8 113.32-20.01 112.97-19.21 112.97-18.31L112.97-18.31 112.97-14.6 123.67-14.6ZM165.26 0L161.63 0 152.13-14.94 147.81-14.94 147.81 0 144.66 0 144.66-35.01 155.77-35.01Q157.55-35.01 159.11-34.34 160.67-33.67 161.85-32.5 163.02-31.32 163.69-29.75 164.36-28.17 164.36-26.39L164.36-26.39 164.36-23.56Q164.36-21.78 163.69-20.2 163.02-18.63 161.85-17.46 160.67-16.28 159.11-15.61 157.55-14.94 155.77-14.94L155.77-14.94 165.26 0ZM161.21-23.56L161.21-26.39Q161.21-27.56 160.77-28.58 160.33-29.59 159.57-30.36 158.82-31.13 157.8-31.57 156.79-32.01 155.62-32.01L155.62-32.01 147.81-32.01 147.81-17.94 155.62-17.94Q156.79-17.94 157.8-18.38 158.82-18.82 159.57-19.59 160.33-20.36 160.77-21.37 161.21-22.39 161.21-23.56L161.21-23.56ZM186.96-6.86L186.96-6.86Q186.96-5.35 186.39-4 185.82-2.66 184.82-1.66 183.82-0.66 182.47-0.09 181.13 0.49 179.62 0.49L179.62 0.49 177.61 0.49Q176.1 0.49 174.76-0.09 173.42-0.66 172.41-1.66 171.41-2.66 170.84-4 170.27-5.35 170.27-6.86L170.27-6.86 170.27-18.14Q170.27-19.65 170.84-21 171.41-22.34 172.41-23.34 173.42-24.34 174.76-24.91 176.1-25.49 177.61-25.49L177.61-25.49 179.62-25.49Q181.13-25.49 182.47-24.91 183.82-24.34 184.82-23.34 185.82-22.34 186.39-21 186.96-19.65 186.96-18.14L186.96-18.14 186.96-12.26 173.27-12.26 173.27-6.69Q173.27-5.79 173.61-4.99 173.95-4.2 174.54-3.61 175.12-3.03 175.92-2.69 176.71-2.34 177.61-2.34L177.61-2.34 179.62-2.34Q180.52-2.34 181.31-2.69 182.11-3.03 182.69-3.61 183.28-4.2 183.62-4.99 183.96-5.79 183.96-6.69L183.96-6.69 183.96-8.35 186.96-7.86 186.96-6.86ZM183.96-14.6L183.96-18.31Q183.96-19.21 183.62-20.01 183.28-20.8 182.69-21.39 182.11-21.97 181.31-22.31 180.52-22.66 179.62-22.66L179.62-22.66 177.61-22.66Q176.71-22.66 175.92-22.31 175.12-21.97 174.54-21.39 173.95-20.8 173.61-20.01 173.27-19.21 173.27-18.31L173.27-18.31 173.27-14.6 183.96-14.6ZM209.67-6.86L209.67-6.86Q209.67-5.35 209.09-4 208.52-2.66 207.52-1.66 206.52-0.66 205.18-0.09 203.83 0.49 202.32 0.49L202.32 0.49 200.32 0.49Q198.8 0.49 197.46-0.09 196.12-0.66 195.12-1.66 194.12-2.66 193.54-4 192.97-5.35 192.97-6.86L192.97-6.86 192.97-18.14Q192.97-19.65 193.54-21 194.12-22.34 195.12-23.34 196.12-24.34 197.46-24.91 198.8-25.49 200.32-25.49L200.32-25.49 202.32-25.49Q203.83-25.49 205.18-24.91 206.52-24.34 207.52-23.34 208.52-22.34 209.09-21 209.67-19.65 209.67-18.14L209.67-18.14 209.67-17.14 206.66-16.65 206.66-18.31Q206.66-19.21 206.32-20.01 205.98-20.8 205.39-21.39 204.81-21.97 204.02-22.31 203.22-22.66 202.32-22.66L202.32-22.66 200.32-22.66Q199.41-22.66 198.62-22.31 197.83-21.97 197.24-21.39 196.65-20.8 196.31-20.01 195.97-19.21 195.97-18.31L195.97-18.31 195.97-6.69Q195.97-5.79 196.31-4.99 196.65-4.2 197.24-3.61 197.83-3.03 198.62-2.69 199.41-2.34 200.32-2.34L200.32-2.34 202.32-2.34Q203.22-2.34 204.02-2.69 204.81-3.03 205.39-3.61 205.98-4.2 206.32-4.99 206.66-5.79 206.66-6.69L206.66-6.69 206.66-8.35 209.67-7.86 209.67-6.86ZM232.37-6.86L232.37-6.86Q232.37-5.35 231.8-4 231.22-2.66 230.22-1.66 229.22-0.66 227.88-0.09 226.54 0.49 225.02 0.49L225.02 0.49 223.02 0.49Q221.51 0.49 220.16-0.09 218.82-0.66 217.82-1.66 216.82-2.66 216.24-4 215.67-5.35 215.67-6.86L215.67-6.86 215.67-18.14Q215.67-19.65 216.24-21 216.82-22.34 217.82-23.34 218.82-24.34 220.16-24.91 221.51-25.49 223.02-25.49L223.02-25.49 225.02-25.49Q226.54-25.49 227.88-24.91 229.22-24.34 230.22-23.34 231.22-22.34 231.8-21 232.37-19.65 232.37-18.14L232.37-18.14 232.37-6.86ZM229.37-6.69L229.37-18.31Q229.37-19.21 229.03-20.01 228.68-20.8 228.1-21.39 227.51-21.97 226.72-22.31 225.92-22.66 225.02-22.66L225.02-22.66 223.02-22.66Q222.12-22.66 221.32-22.31 220.53-21.97 219.94-21.39 219.36-20.8 219.02-20.01 218.67-19.21 218.67-18.31L218.67-18.31 218.67-6.69Q218.67-5.79 219.02-4.99 219.36-4.2 219.94-3.61 220.53-3.03 221.32-2.69 222.12-2.34 223.02-2.34L223.02-2.34 225.02-2.34Q225.92-2.34 226.72-2.69 227.51-3.03 228.1-3.61 228.68-4.2 229.03-4.99 229.37-5.79 229.37-6.69L229.37-6.69ZM248.72-22.14L245.72-22.14Q244.82-22.14 244.03-21.8 243.23-21.46 242.65-20.87 242.06-20.29 241.72-19.49 241.38-18.7 241.38-17.8L241.38-17.8 241.38 0 238.37 0 238.37-25 239.37-25 241.01-22.46Q242.04-23.85 243.59-24.67 245.14-25.49 246.97-25.49L246.97-25.49 248.72-25.49 248.72-22.14ZM269.43 0L268.42 0 266.76-2.54Q265.74-1.15 264.2-0.33 262.66 0.49 260.83 0.49L260.83 0.49 260.07 0.49Q258.56 0.49 257.22-0.09 255.88-0.66 254.87-1.66 253.87-2.66 253.3-4 252.73-5.35 252.73-6.86L252.73-6.86 252.73-18.14Q252.73-19.65 253.3-21 253.87-22.34 254.87-23.34 255.88-24.34 257.22-24.91 258.56-25.49 260.07-25.49L260.07-25.49 260.83-25.49Q262.52-25.49 263.96-24.8 265.4-24.12 266.42-22.9L266.42-22.9 266.42-35.01 269.43-35.01 269.43 0ZM266.42-6.69L266.42-18.31Q266.42-19.21 266.08-20.01 265.74-20.8 265.15-21.39 264.57-21.97 263.77-22.31 262.98-22.66 262.08-22.66L262.08-22.66 260.07-22.66Q259.17-22.66 258.38-22.31 257.58-21.97 257-21.39 256.41-20.8 256.07-20.01 255.73-19.21 255.73-18.31L255.73-18.31 255.73-6.69Q255.73-5.79 256.07-4.99 256.41-4.2 257-3.61 257.58-3.03 258.38-2.69 259.17-2.34 260.07-2.34L260.07-2.34 262.08-2.34Q262.98-2.34 263.77-2.69 264.57-3.03 265.15-3.61 265.74-4.2 266.08-4.99 266.42-5.79 266.42-6.69L266.42-6.69Z" opacity="1" transform="matrix(1,0,0,1,0,0)" fill="#ffffff" class="slogan-text-1" data-fill-palette-color="secondary" id="text-1"></path></svg></g></svg></g></svg></g></svg></g><g transform="matrix(1,0,0,1,418.78959830019795,0)"><svg viewBox="0 0 245.65351679999995 245.65351679999995" height="245.65351679999995" width="245.65351679999995"><g><svg xmlns="http://www.w3.org/2000/svg" xmlns:xlink="http://www.w3.org/1999/xlink" version="1.1" x="0" y="0" viewBox="4 4 92 92" enable-background="new 0 0 100 100" xml:space="preserve" height="245.65351679999995" width="245.65351679999995" class="icon-icon-0" data-fill-palette-color="accent" id="icon-0"><g fill="#ead6fb" data-fill-palette-color="accent"><g fill="#ead6fb" data-fill-palette-color="accent"><path d="M50 96C24.636 96 4 75.364 4 50S24.636 4 50 4 96 24.636 96 50 75.364 96 50 96M50 10C27.944 10 10 27.944 10 50S27.944 90 50 90 90 72.056 90 50 72.056 10 50 10" fill="#ffffff" data-fill-palette-color="accent"></path></g><g fill="#ead6fb" data-fill-palette-color="accent"><path d="M50 63.789C42.397 63.789 36.212 57.603 36.212 50S42.398 36.213 50 36.213 63.788 42.398 63.788 50C63.788 57.604 57.603 63.789 50 63.789M50 42.213C45.706 42.213 42.212 45.706 42.212 50S45.706 57.789 50 57.789 57.788 54.295 57.788 50C57.788 45.706 54.294 42.213 50 42.213" fill="#ffffff" data-fill-palette-color="accent"></path></g><g fill="#ead6fb" data-fill-palette-color="accent"><path d="M50 53.168C48.254 53.168 46.833 51.746 46.833 50S48.254 46.834 50 46.834 53.167 48.254 53.167 50 51.746 53.168 50 53.168" fill="#ffffff" data-fill-palette-color="accent"></path></g><g fill="#ead6fb" data-fill-palette-color="accent"><g fill="#ead6fb" data-fill-palette-color="accent"><g fill="#ead6fb" data-fill-palette-color="accent"><path d="M81.75 53A3 3 0 0 1 78.75 50C78.75 34.147 65.853 21.25 50 21.25A3 3 0 1 1 50 15.25C69.161 15.25 84.75 30.839 84.75 50A3 3 0 0 1 81.75 53" fill="#ffffff" data-fill-palette-color="accent"></path></g><g fill="#ead6fb" data-fill-palette-color="accent"><path d="M72.129 53A3 3 0 0 1 69.129 50C69.129 39.452 60.548 30.871 50 30.871A3 3 0 1 1 50 24.871C63.856 24.871 75.129 36.144 75.129 50A3 3 0 0 1 72.129 53" fill="#ffffff" data-fill-palette-color="accent"></path></g></g><g fill="#ead6fb" data-fill-palette-color="accent"><g fill="#ead6fb" data-fill-palette-color="accent"><path d="M49.75 84C30.589 84 15 68.411 15 49.25A3 3 0 1 1 21 49.25C21 65.103 33.897 78 49.75 78A3 3 0 1 1 49.75 84" fill="#ffffff" data-fill-palette-color="accent"></path></g><g fill="#ead6fb" data-fill-palette-color="accent"><path d="M49.75 74.379C35.894 74.379 24.621 63.107 24.621 49.25A3 3 0 1 1 30.621 49.25C30.621 59.798 39.202 68.379 49.75 68.379A3 3 0 1 1 49.75 74.379" fill="#ffffff" data-fill-palette-color="accent"></path></g></g></g></g></svg></g></svg></g></svg></g><defs></defs></svg><rect width="395.52" height="146.22904016408407" fill="none" stroke="none" visibility="hidden"></rect></g></svg></g></svg>